<?xml version="1.0" standalone="no"?>
<!DOCTYPE svg PUBLIC "-//W3C//DTD SVG 20010904//EN"
 "http://www.w3.org/TR/2001/REC-SVG-20010904/DTD/svg10.dtd">
<svg version="1.0" xmlns="http://www.w3.org/2000/svg"
 width="2048.000000pt" height="2048.000000pt" viewBox="0 0 2048.000000 2048.000000"
 preserveAspectRatio="xMidYMid meet">

<g transform="translate(0.000000,2048.000000) scale(0.100000,-0.100000)"
fill="#000000" stroke="none">
<path d="M5523 18579 c-829 -48 -1641 -310 -2313 -747 -292 -189 -497 -356
-755 -616 -757 -759 -1208 -1727 -1325 -2844 -31 -294 -29 -932 5 -1387 129
-1742 629 -2992 1718 -4296 250 -300 446 -510 846 -909 623 -622 998 -960
2811 -2531 1546 -1340 2432 -2135 3443 -3086 153 -145 283 -263 287 -263 5 0
98 84 207 188 1042 984 1926 1776 3698 3312 1655 1434 2134 1868 2740 2481
584 591 968 1050 1310 1564 818 1232 1173 2541 1176 4336 1 525 -34 850 -141
1285 -203 824 -613 1557 -1205 2150 -250 251 -435 404 -717 592 -1135 759
-2664 983 -3996 586 -1050 -313 -1980 -979 -2700 -1934 -73 -96 -137 -189
-359 -526 -13 -19 -13 -19 -25 0 -301 454 -365 544 -538 751 -507 610 -1077
1068 -1741 1399 -763 382 -1562 544 -2426 495z"/>
</g>
</svg>
